<mxfile host="65bd71144e">
    <diagram id="RsFXkTsws_hGbCBIhC6V" name="Page-1">
        <mxGraphModel dx="2018" dy="990" grid="1" gridSize="10" guides="1" tooltips="1" connect="1" arrows="1" fold="1" page="1" pageScale="1" pageWidth="1169" pageHeight="827" math="0" shadow="0">
            <root>
                <mxCell id="0"/>
                <mxCell id="1" parent="0"/>
                <mxCell id="2" value="" style="edgeStyle=orthogonalEdgeStyle;rounded=0;html=1;startArrow=none;startFill=0;jettySize=auto;orthogonalLoop=1;strokeColor=#FFFFFF;strokeWidth=3;fontSize=32;fontColor=#FFFFFF;" edge="1" parent="1" source="3" target="5">
                    <mxGeometry relative="1" as="geometry"/>
                </mxCell>
                <mxCell id="3" value="request" style="rounded=0;whiteSpace=wrap;html=1;shadow=0;labelBackgroundColor=none;strokeColor=#FFFFFF;strokeWidth=2;fillColor=#000000;fontSize=22;fontColor=#FFFFFF;align=center;" vertex="1" parent="1">
                    <mxGeometry x="760" y="205" width="120" height="60" as="geometry"/>
                </mxCell>
                <mxCell id="4" value="" style="edgeStyle=orthogonalEdgeStyle;rounded=0;html=1;startArrow=none;startFill=0;jettySize=auto;orthogonalLoop=1;strokeColor=#FFFFFF;strokeWidth=3;fontSize=32;fontColor=#FFFFFF;" edge="1" parent="1" source="5" target="6">
                    <mxGeometry relative="1" as="geometry"/>
                </mxCell>
                <mxCell id="5" value="app" style="rounded=0;whiteSpace=wrap;html=1;shadow=0;labelBackgroundColor=none;strokeColor=#FFFFFF;strokeWidth=2;fillColor=#000000;fontSize=22;fontColor=#FFFFFF;align=center;" vertex="1" parent="1">
                    <mxGeometry x="760" y="305" width="120" height="60" as="geometry"/>
                </mxCell>
                <mxCell id="6" value="passport.initialize()" style="rounded=0;whiteSpace=wrap;html=1;shadow=0;labelBackgroundColor=none;strokeColor=#FFFFFF;strokeWidth=2;fillColor=#000000;fontSize=22;fontColor=#FFFFFF;align=center;" vertex="1" parent="1">
                    <mxGeometry x="720" y="395" width="200" height="60" as="geometry"/>
                </mxCell>
                <mxCell id="7" value="OAuth with Passport" style="text;html=1;strokeColor=none;fillColor=none;align=center;verticalAlign=middle;whiteSpace=wrap;rounded=0;shadow=0;labelBackgroundColor=none;fontSize=32;fontColor=#FFFFFF;" vertex="1" parent="1">
                    <mxGeometry x="660" y="155" width="320" height="20" as="geometry"/>
                </mxCell>
                <mxCell id="8" value="Incoming request from the browser" style="text;html=1;strokeColor=none;fillColor=none;align=center;verticalAlign=middle;whiteSpace=wrap;rounded=0;shadow=0;labelBackgroundColor=none;fontSize=12;fontColor=#FFFFFF;" vertex="1" parent="1">
                    <mxGeometry x="890" y="200" width="90" height="70" as="geometry"/>
                </mxCell>
                <mxCell id="9" value="Handles all incoming requests" style="text;html=1;strokeColor=none;fillColor=none;align=center;verticalAlign=middle;whiteSpace=wrap;rounded=0;shadow=0;labelBackgroundColor=none;fontSize=12;fontColor=#FFFFFF;" vertex="1" parent="1">
                    <mxGeometry x="890" y="297" width="90" height="70" as="geometry"/>
                </mxCell>
                <mxCell id="10" value="Start up express for this request lifecycle" style="text;html=1;strokeColor=none;fillColor=none;align=center;verticalAlign=middle;whiteSpace=wrap;rounded=0;shadow=0;labelBackgroundColor=none;fontSize=12;fontColor=#FFFFFF;" vertex="1" parent="1">
                    <mxGeometry x="930" y="390" width="90" height="70" as="geometry"/>
                </mxCell>
                <mxCell id="11" value="" style="edgeStyle=orthogonalEdgeStyle;rounded=0;html=1;startArrow=none;startFill=0;jettySize=auto;orthogonalLoop=1;strokeColor=#FFFFFF;strokeWidth=3;fontSize=32;fontColor=#FFFFFF;" edge="1" parent="1" target="12">
                    <mxGeometry relative="1" as="geometry">
                        <mxPoint x="820" y="455" as="sourcePoint"/>
                    </mxGeometry>
                </mxCell>
                <mxCell id="12" value="passport.authenticate()" style="rounded=0;whiteSpace=wrap;html=1;shadow=0;labelBackgroundColor=none;strokeColor=#FFFFFF;strokeWidth=2;fillColor=#000000;fontSize=22;fontColor=#FFFFFF;align=center;" vertex="1" parent="1">
                    <mxGeometry x="700" y="485" width="240" height="60" as="geometry"/>
                </mxCell>
                <mxCell id="13" value="Kick this person into the oauth flow. &amp;nbsp;When they're done, save info to their 'session' that indicates we know who they are" style="text;html=1;strokeColor=none;fillColor=none;align=center;verticalAlign=middle;whiteSpace=wrap;rounded=0;shadow=0;labelBackgroundColor=none;fontSize=12;fontColor=#FFFFFF;" vertex="1" parent="1">
                    <mxGeometry x="950" y="480" width="140" height="70" as="geometry"/>
                </mxCell>
                <mxCell id="14" value="&lt;div style=&quot;text-align: center&quot;&gt;&lt;span&gt;Passport Library Components&lt;/span&gt;&lt;/div&gt;" style="text;html=1;strokeColor=none;fillColor=none;align=center;verticalAlign=middle;whiteSpace=wrap;rounded=0;shadow=0;labelBackgroundColor=none;fontSize=32;fontColor=#FFFFFF;" vertex="1" parent="1">
                    <mxGeometry x="140" y="218" width="320" height="20" as="geometry"/>
                </mxCell>
                <mxCell id="15" value="passport" style="rounded=0;whiteSpace=wrap;html=1;shadow=0;labelBackgroundColor=none;strokeColor=#FFFFFF;strokeWidth=2;fillColor=#000000;fontSize=22;fontColor=#FFFFFF;align=center;" vertex="1" parent="1">
                    <mxGeometry x="110" y="283" width="120" height="60" as="geometry"/>
                </mxCell>
                <mxCell id="16" value="passport strategy" style="rounded=0;whiteSpace=wrap;html=1;shadow=0;labelBackgroundColor=none;strokeColor=#FFFFFF;strokeWidth=2;fillColor=#000000;fontSize=22;fontColor=#FFFFFF;align=center;" vertex="1" parent="1">
                    <mxGeometry x="110" y="373" width="120" height="60" as="geometry"/>
                </mxCell>
                <mxCell id="17" value="General helpers for handling auth in Express apps" style="text;html=1;strokeColor=none;fillColor=none;align=left;verticalAlign=middle;whiteSpace=wrap;rounded=0;shadow=0;labelBackgroundColor=none;fontSize=18;fontColor=#FFFFFF;" vertex="1" parent="1">
                    <mxGeometry x="240" y="273" width="240" height="80" as="geometry"/>
                </mxCell>
                <mxCell id="18" value="Helpers for authenticating with one very specific method (email/password, Google, Facebook, etc)" style="text;html=1;strokeColor=none;fillColor=none;align=left;verticalAlign=middle;whiteSpace=wrap;rounded=0;shadow=0;labelBackgroundColor=none;fontSize=18;fontColor=#FFFFFF;" vertex="1" parent="1">
                    <mxGeometry x="240" y="367" width="240" height="80" as="geometry"/>
                </mxCell>
            </root>
        </mxGraphModel>
    </diagram>
</mxfile>